<?xml version="1.0" encoding="UTF-8"?>
<svg version="1.1" viewBox="0 0 2000 2000" width="1280" height="1280" xmlns="http://www.w3.org/2000/svg">
<path transform="translate(946,571)" d="m0 0h47l17 1 10 2 21 3 27 6 41 12 30 12 19 10 19 9 26 16 18 13 16 12 17 16 10 9 16 17 8 8 9 11 14 18 20 30 8 14 12 23 10 24 7 19 8 28 6 25 5 34 3 35v37l-4 36-5 29-4 19-9 32-11 28-12 25-13 23-13 21-11 15-9 12-13 16-12 13-15 15-8 7-13 12-14 11-12 9-24 16-14 8-28 14-27 11-36 12-25 7-26 5-45 4h-38l-26-2-29-4-28-6-23-7-21-7-25-10-16-8-25-13-21-13-11-8-10-7-11-9-16-13-10-9-13-13-9-11-9-10-7-8-11-13-11-16-12-19-13-23-12-25-9-23-8-26-6-24-6-33-2-12-1-5-1-17v-52l1-17 3-16 2-16 5-27 10-36 8-22 11-24 10-18 21-36 13-18 13-17 9-10 7-8 18-18 8-7 17-14 15-12 23-16 18-11 23-12 19-9 29-11 28-8 22-6 26-5 26-3zm9 11-36 2v2l8 7 7 7 7 8h41l8-10 8-11 3-5zm58 1-6 4-5 5-7 8-5 8 4 1 35 3h16l-8-17-8-9-10-3zm-117 4-8 3-5 5-8 14-2 6 5 1h9l15-3 31-2v-4l-11-12-8-6-5-2zm146 2 2 6 5 14 2 2 10-1 13-2 15-1v-3l-4-3-21-7zm-170 6-34 10-6 3-1 2 7 2 17 2h11l6-10 3-9zm207 18-9 2v3l5 2 14 2 25 6 13 4h5l-2-5-12-9-12-5zm-91 2-4 2-11 19-3 5v2l9-3 22-10 17-9 4-4-6-1zm-12 0-29 1 2 5 12 22h3l5-8 8-17zm154 1 6 8 11 10 12 6 25 11 9 4h3l-2-5-9-8-15-10-16-8-21-8zm-294 2-1 1h-22l-9 6-6 5-2 5 8-1 30-8 16-4v-2l-11-2zm88 1-20 1-4 2 11 5 28 11 11 5 6 1-8-15-8-10zm121 0-14 5-26 10-12 5-7 4v1h66l1-3-4-18-2-4zm10 3 1 9 3 11 1 1 31 2 36 6 26 7h4l-2-6-6-7-10-5-19-6-28-6-25-5zm-267 1-20 9-14 7-12 8-14 11-2 3 1 3 12-5 24-11 10-4 13-11 6-7 1-3zm84 0-3 4-5 16v4l9-1h40l17 2h12l2-2-9-5-24-9-15-5-13-3zm-10 2-8 2-21 5-47 13-9 6-7 9-2 3v3l10-2 29-8 12-3 28-4 11-1 3-13 2-10zm302 24 1 6 4 6 24 10 18 8 6 2v-7l-9-6-19-9-13-6-10-4zm-134 0-34 1-4 1v2l19 6 25 6 18 5h2v-12l-1-7-2-2zm30 1 3 19 1 3 8 4 26 10 33 15 28 15 7 4h2l3-12v-19l-5-20-6-3-24-6-27-5-31-4zm-176 1-17 2-4 4-3 11-1 10 6-1 40-14 24-6 6-3-3-2-14-1zm-35 4-35 6-32 8-20 7-3 2-3 21 3 22 2 8 4-1 21-13 22-12 23-11 20-9 2-1 2-11 1-14-1-2zm-88 0-17 7-17 8-15 9-10 9-3 8 9-3 19-10 22-10 8-4 4-5 2-5v-4zm223 4-1 2 15 10 16 10 14 11 16 13 11 9 6 5-2-33-2-7-16-6-27-8-23-6zm-44 1-33 10-44 15-3 2-1 9-2 42 4-5 25-25 11-9 11-10 14-11 16-12 7-5v-1zm18 0m12 1 2 5 12 25 11 29 9 26 2 2 16 2 35 3h6v-21l-14-15-11-9-16-13-16-12-18-13-17-9zm-13 0-14 9-14 11-16 13-11 9-15 14-8 7-12 12v2h-2l-7 8-3 5v5h9l38-5 25-3 2-1 13-45 6-18 9-20zm6 1-10 25-10 31-8 28v2h62l-11-33-12-32-9-20zm212 9 1 13 1 7v16l-3 17 7 6 12 8 17 12 16 13 11 9 6 5 2 3h2l2 4 3 2-1-9-5-27-6-25-5-15-7-14-7-5-16-8-18-8zm-111 9 2 16 1 25 2 6 3 4h2l1 3 8 7 7 7 7 8 7 4 28 6 7-3 7-7 9-11 9-14v-4l-21-12-23-12-17-8-37-15zm-315 1-19 8-19 10-17 10-4 5-7 18-6 23-5 31-1 9v11l2-1v-2l4-2 17-17 11-9 14-12 11-9 16-12 10-7 1-3-4-12-2-16v-8l1-5v-10zm480 1 2 6 9 7 18 10 5 2-5-5-11-10-15-10zm-380 9-33 16-17 9-27 16-5 4 1 4 8 11 16 16 4 2 12-1 27-6 7-7v-2h2l7-9 1-36v-17zm-159 2-6 4-17 14-10 9-5 7 1 2 11-6 13-11 9-6 5-7 1-6zm549 8 2 7 5 11 7 24 5 31 1 14 2 6 12 12 7 8 12 13 9 11 7 7 8 7 2 1 3-18v-31l-2-16-5-16-5-10-11-13-21-21-11-9-12-9-14-9zm24 6 1 2 2-1zm3 2m-588 10-12 9-15 13-21 21-8 10-6 9-4 11-4 25v16l4 26 1 3 4-2 13-11 10-8 18-18 5-7 1-9 1-21 4-26 5-21 6-18v-2zm492 14-8 12-8 10-11 12v2l21 6 36 12 16 6 30 14 5 3h2l-1-13-13-14-8-7-14-12-20-15-16-11-8-5zm-103 1 1 20 9 2h10l-3-5-12-13zm-307 6-14 10-18 14-14 12-10 9-2 1v2l-4 2-9 9-2 1v2l-4 2-11 11-2 6 5-1 24-13 25-12 39-15 24-7-1-3-5-4-9-11-11-15zm182 15-9 1-4 13-10 44v2l36 3h22l37-3 3-1-2-11-10-37-5-11zm66 0 4 16 10 37 2 4 10-1 27-7 2-1 1-42-6-2-22-3zm-94 2-53 6-5 1 1 18 2 20 10 5 12 3 26 4h5l3-9 10-42 1-6zm155 4-2 40 6-1 20-9 16-8v-4l-12-13-4-2zm-223 4-9 6-7 7-6 8 2 4 24 11h2l-1-36zm262 2 4 6 5 5 8-5-1-3-11-3zm-285 4-17 4v3l8 6 5 1 8-10 1-4zm313 3-14 9 2 4 12 15 13 18 9 13 17 26 13 22 16 29 13 26 10 24 5-2 4-6 8-36 4-23 3-23 1-16v-34l-15-9-25-12-26-10-31-10zm-347 5-38 13-27 11-26 12-23 13-4 3v11l2 27 6 39 8 39 3 7 8 7 15 9h2l5-14 13-30 13-28 15-28 15-25 10-16 12-17 15-20v-4l-16-9zm322 9-16 9-27 11-2 61-5 60-2 21v8l7 2 32 6 30 7 20 6 19 7 7 1 12-5 20-10 15-8-5-14-10-22-10-19-13-24-14-23-16-25-12-17-14-19-11-13zm217 3 1 10 1 7v20l-3 19-2 12 17 17 13 17 9 12h1l-1-15-7-33-7-22-11-27-7-13zm-509 3-14 18-14 20-15 24-15 27-12 23-9 19-13 30-6 15v3l16 9 17 8 6 2 8-1 35-12 34-9 29-7 2-1v-7l-5-30-3-23-3-28-5-67-25-11-5-2zm-218 9-6 10-14 33-8 26-5 23-2 14v11l4-4 7-11 8-11 9-11 5-6 8-7 1-5-4-15-3-20v-12l3-13-1-2zm659 0v9l1 3 12 6 3-1-3-6-12-11zm-400 7-1 13 1 21 2 12 3 36 2 13 6 52 1 4 12-2 1-1 3-18 8-50 10-54 3-15-31-6-18-5zm196 1-23 6-6 2 1 9 10 42 10 47 6 23h1l2-42 2-22 2-46 1-9v-10zm-41 10-29 3h-46l-13-1h-10l-1 1-10 56-13 77v2l27-3 34-1 4-1h29l10 1 38 1h15l-7-37-12-54-9-36-3-8zm245 2-2 48-6 42-7 32 1 2 9-7 14-12 16-16 12-16 8-13 7-13-1-4-8-12-9-10-13-10-16-10zm-598 12-11 8-8 9-11 15-7 11-2 6 9 14 9 12 10 11 7 8 12 11 8 7 1-3-8-39-6-42-2-28zm661 34 2 5 15 27 10 21 11 29 3 3 1-3 1-13 2-9-4-9-10-17-8-11-11-13-11-10zm-713 6-11 12-13 17-10 15-8 14-2 6v20l2 21 2 5 2-3 8-26 6-17 13-28 15-30v-5zm706 2-9 16-12 16-12 13-17 17-11 9-13 10-3 5-4 13 3 11 8 22 5 17 5 6 14 11 11 9 15 15 10 13 10 16 3 1 17-36 11-27 9-30 4-15v-17l-8-25-12-29-15-31-7-10zm-698 14-9 16-16 35-9 24-9 34v13l12 35 10 24 9 17 6 12 6 9 4-4 12-19 11-14 12-13 15-14 17-13 6-5 5-15-1-9-14-44-7-6-13-10-10-9-12-12-11-14-8-11-4-7zm756 53-2 3-1 8v37l5 29 3 3 1-2 1-18v-21l-2-30-4-9zm-695 3m248 13-4 2-30 2-2 9-6 45v5l6 1 17 1 12 2h80l1-1 7-1 32-2 3-1 3-13 4-31 2-13-1-1-23-2-10-2zm-234 4 7 26 3 7 3-3 6-17-1-3-14-8zm365 2 6 35 3 16 12-1 27-6 34-10 19-7 3-3-24-8-32-8-34-7-6-1zm-502 1-1 6v42l2 15 3 11h4l1-19 1-7v-10l-3-24-4-13zm326 0-7 1 1 11 5 17 2 1 1-17 1-13zm-14 2-25 5-28 7-37 12-4 2v2l28 9 39 9 27 5 8 1-1-17-4-30-2-5zm354 1-16 8-19 10-5 2 5 4 20 9 8 4 3-1 10-25v-6l-3-5zm-504 9-3 7-6 18-1 9 3 3 7-1 18-10 15-8 1-2-25-12-7-4zm514 12-5 10-2 6v5l16 9 2 1-3-12-7-19zm-60 4-25 9-18 6-36 9-25 5 3 24 6 50 4 43 2 32 1 7 8 4 22 9 4-1 9-12 13-19 13-20 14-24 12-22 12-23 11-24 13-30v-5l-24-12-16-6zm-118 1-2 1-2 18v5l10-1 1-1-1-13-2-9zm-292 3-10 4-24 12-13 7 1 5 15 33 10 19 16 29 12 20 8 12 12 17 21 28 10 14 5-1 14-7 27-11 2-2v-21l1-28 2-18 1-23 3-25 2-26 1-8-7-3-37-7-30-7-16-5-25-8zm603 1-4 10-5 20-11 28-11 25-10 19-2 6 4 2 8-8 7-8 13-17 9-15 5-10 2-8-3-38-1-6zm-142 17-5 10-10 24-8 18-8 16-12 23-13 23-11 18-7 11-16 24-9 12 1 3 11 7 5 2 7-1 20-6 30-11 30-13 32-16 6-4v-9l-3-34-6-38-7-32-3-11-8-7-15-9zm-168 9-7 2-3 28-4 26-9 50-7 34 21 4 27 7 4 1-2-41-3-31-2-21-3-27-3-25v-7zm-348 0-5 5-4 13-6 25-5 29-3 22-1 15v33l10 6 26 12 28 11 41 13 13 3 10-6 3-2-1-4-14-17-14-19-13-19-10-15-9-15-15-27-12-23-12-27-5-12zm330 1-13 2-4 1-17 1h-93l-24-3 1 9 13 62 13 55 3 11 4 1 20-2 20-1h25l20 1h13l2-6 8-39 9-53 6-36v-3zm-465 4-1 3-1 27 3 9 13 20 10 13 8 9 7 6h2l-1-5-9-15-12-23-7-15-7-20-4-9zm683 7m-565 1-12 11-8 7-21 21-12 16-8 13-4 8-1 7 14 15 6 7 13 10 15 9 4 1v-30l2-23 5-32 7-30 2-10zm566 0 2 11 6 27 5 31 2 22v23l4-2 10-8 8-8 13-19 6-8-1-7-6-11-12-16-11-12-11-11-11-9zm-375 16-1 1-2 37-2 13-2 71 11-3 24-7-1-7-12-50-8-42-3-13zm161 4m327 8-8 12-12 16-11 12-8 8-2 5 5 20 1 7 1 20-2 18 4-5 8-16 9-21 8-25 6-27 2-15v-9zm-799 14 1 12 6 29 11 33 12 27 7 12 2 1-1-17v-26l2-15 2-7-3-5-14-14-9-11-10-13-4-6zm747 34m-1 1m-1 1m5 8-10 9-11 9-13 12-9 11-5 9-2 33-4 26-6 22-3 12 8-6 15-13 10-9 8-7v-2h2l7-8 9-12 8-16 3-21v-22l-4-24-1-3zm-702 9-1 1-2 23v21l1 17 5 16 6 11 10 13 16 16 8 7 16 13 14 10 5 4 2-1-10-25-5-19-6-33-1-14-7-8-9-9-18-22-4-5-8-7-9-8zm40 29m1 1 4 7 12 12h1v-10l-5-4-10-5zm605 2-16 8-19 10-26 11-26 10-23 7-6 1 6 7 10 11 8 11 4 4 11-7 21-16 11-9 15-14 8-7 12-11 7-8 4-5zm-295 2-28 2-22 2 4 16 11 37 3 6 6 1h41l18-1 3-7 11-44v-8l-13-2-28-2zm55 3-5 19-9 37v2h10l30-2 29-4 1-5-2-29-2-5-8-3-18-5zm-119 4-30 8-1 1v43l31 3 17 2h6l-1-9-8-28-3-12-4-8zm-222 2v8l2 7 12 12 11 9 17 14 18 13 16 11 4 3 4-1 14-20 12-13v-2l-23-6-32-11-33-14-16-8zm580 6-23 23-8 7-14 12-12 9-19 14-7 6 2 10 3 11 1 15-3 15v3l5-1 23-11 19-10 14-9 3-5 7-21 6-23 4-28 1-17zm-399 4-20 8-18 9 1 4 11 12 4 3 25 3 1-1-1-38zm219 0 1 28 3 5 5 1 5-3 8-8 8-10-1-3-25-10zm-399 15 2 16 7 31 6 21 9 21 9 6 19 9 22 9h3l-3-17v-18l3-13v-7l-24-16-16-12-13-11-17-14-6-5zm435 0-7 8-2 6 10-1 10-4v-3l-9-6zm-301 7-6 5v2l12 4h3l-2-5-4-6zm320 8-35 8-10 9-8 10-1 3v16l-1 22v12l9-3 20-9 22-12 21-12 13-8 2-4-12-16-8-10h-2l-2-4-3-2zm-338 5-10 9-8 9-9 13-1 6 22 13 25 13 31 13 19 7 3 1-3-28-1-17-12-13-19-19-15-4-14-3zm48 8 4 6h2l2 4 12 11 1-2-1-16-7-2zm224 1-28 3-28 2-7 1-6 16-11 36-11 31-1 5 8-4 16-13 11-9 14-11 17-16 15-14 14-13 6-9v-5zm-198 3v20l3 5 7 7 14 11 14 12 17 13 19 14 12 9 6 1-9-19-8-19-14-40-3-8-7-2-45-4zm65 5 3 11 10 28 14 36 4 8 3 2 4-10 8-26 11-33 4-13v-3zm140 12-8 7-23 23-2 1v2l-4 2-10 9-14 11-17 13-8 6v1l12-1 16-5 47-16 8-4 1-1 3-42v-6zm205 4m-1 1-16 12-14 11-7 8v5l5-2 11-10 10-8 7-7 5-7zm-112 3-21 13-16 9-27 14-24 10-4 21v6h10l36-7 39-10 9-4 3-5 3-11v-19l-4-16zm-402 7-2 3-3 12v16l6 20 6 4 13 4 31 6 27 4 21 2h8l-2-12-3-11-8-4-28-11-24-11-29-15zm106 0v20l1 20 4 4 32 9 30 8 8 1v-3l-19-14-13-9-13-10-14-12-15-14zm-195 18 2 4 12 10 11 7h1v-5l-8-6-17-10zm555 8-19 10-28 12-9 4-4 8v4l10-3 19-8 19-10 10-8 3-5zm-517 12 1 6 5 6 10 6 19 8 19 7-1-8-9-6-26-11-17-8zm464 4m-108 1-19 7-23 7-24 6-1 2 4 2 10 1h33l14-1 4-1 4-17v-6zm-195 7v10l2 10 1 1h24l33-2 4-2-10-3-42-11zm288 5-31 8-40 8-19 3-4 20 2 1 35-8 29-8 13-4 9-7 6-8 2-5zm41 2-23 11-19 8-10 7-10 9-3 4v3l11-3 23-11 15-10 16-12 4-4v-2zm-257 4m-172 2 3 9 6 5 9 4 23 7 47 10h13l1-4-4-16-36-3-27-4-27-6zm-41 2 6 9 13 10 16 9 25 10 7 2-2-4-17-17-9-4-12-4-25-11zm254 8v2l20 9 24 8 19 5 9 1 4-7 3-13v-4h-50l-10-1zm-49 1-10 2-12 1h-37l-1 2 4 17 1 2 6 1 13-2 26-11 20-9 1-3zm31 1m-1 1-8 15-6 13v1h11l18-2-2-6-10-17zm8 1 2 6 10 16 3 3 6 1 20-1 12-2-4-4-21-8-23-10zm-16 0-12 5-15 8-18 8-4 4 2 1 23 2h9l6-8 9-16 1-4zm175 8-27 7-24 5-4 3 9 2h28l9-5 9-8 1-4zm-338 4 5 5 7 6 9 5 6 2h26l11-3 1-2-13-2-27-6-21-5zm258 16-34 4-24 1 2 5 11 12 8 6 2 1h9l13-3 6-5 7-12 3-9zm11 1-4 6-5 13 1 3 17-5 20-7 7-4v-1zm-180 2 3 9 7 13 3 3 11 3h11l8-7 13-16v-1l-7-1zm-12 1-12 3-18 2-3 1v2l18 7 21 6 8 1-1-6-8-16zm110 1-16 2-18 1-9 10-10 13 3 2h68l9-1-2-4-12-12-9-11z" fill="#2C2C2C"/>
<path transform="translate(1311,457)" d="m0 0 5 2 15 10 14 10 17 12 21 14 40 27 1 4-7 11-8 11-2 1-50 2-29 2h-19l4 4 34 22 18 12 9 7-2 5-5 7-1 3h19l11-3 25-1 20-3 27-2 9-2 18-1 5 3 9 11 8 10 7 9 1 2-1 10-10 29-12 36-14 40-5 16 18-6 53-15 34-10 5-2 4 1 5 21 10 29v6l-8 10-9 10-7 8-9 10-11 14-9 9-7 8-6 7 53 15 37 11 7 3 3 8 8 29 5 15v4l-19 6-43 12-42 13-6 2h-5l-10-36-2-6v-5l9-4 30-9 26-6 5-1v-3l-11-2-64-16-8-3-3-5-3-11-5-14v-6l7-8 11-12 22-22 2-3h2l2-4 12-11 2-5-36 12-32 9h-6l-7-26-5-13-11-14-10-13-12-16-1-3 7-12 1-5-4-7-11-13-10-13-11-14-8-10-5-2-18 2-5-4-8-11-14-15-15-9-17-12-18-12-23-16-39-26-5-4 1-5 8-12 7-8 9-2 14-1 74-1-2-4-23-16-33-22-5-5 8-13zm171 193-31 5-7 1v3l10 11 9 12 6 7 4-4 10-25 2-9z" fill="#090909"/>
<path transform="translate(807,406)" d="m0 0h4l11 24-1 3-58 24-20 9-1 2 5 13 1 2 6-1 29-13 30-13h5l7 18-1 3-27 11-21 9-16 7h-2l5 14 1 3 13-4 27-12 27-11 15-7 5 1 8 14 4 8v3l-23 10-37 15-73 31-4 2-12 8-18 14-16 13-17 13-13 11-26 20-5 4-4-1-8-10-7-9-12-15-13-17-13-16-8-10-8-9-2-3 1-4 8-7 10-8 14-12 3-2 5 1 7 10 13 16 13 17 12 15 7 10 5-1 13-12 13-10 14-11 16-13 9-6 5 1 10 13 4 4-2-9-11-28-19-45-10-24 3-3 35-14 45-19z" fill="#090909"/>
<path transform="translate(1593,744)" d="m0 0 4 1 5 21 10 29v6l-8 10-9 10-7 8-9 10-11 14-9 9-7 8-6 7 53 15 37 11 7 3 3 8 8 29 5 15v4l-19 6-43 12-42 13-6 2h-5l-10-36-2-6v-5l9-4 30-9 26-6 5-1v-3l-11-2-64-16-8-3-3-5-3-11-5-14v-6l7-8 11-12 22-22 2-3h2l2-4 12-11 2-5-36 12-32 9h-6l-7-26-5-16v-4l12-5 53-15 41-12z" fill="#080808"/>
<path transform="translate(1524,1171)" d="m0 0 6 1 18 8 30 13 25 11 26 12 4 3-1 5-13 28-9 19-4 3-16 4-19 6-53 15-8 3 15 7 31 13 24 11 2 2-1 5-11 22-6 16-4 2-29-13-32-14-15-7-30-13-1-4 8-16 10-23 6-12 11-4 43-13 36-9 9-2-1-3-30-13-23-10-16-7-2-3 11-23 8-19z" fill="#080808"/>
<path transform="translate(1588 1e3)" d="m0 0h11l16 3 14 7 10 9 8 14 4 11 3 18v26l-4 25-6 18-7 13-11 12-11 7-13 4-6 1h-9l-16-3-12-5-9-6-7-7-7-11-5-15-3-14v-28l5-27 6-17 7-12 9-10 9-7 11-4zm-6 51-10 5-6 7-4 10-2 9 1 12 4 9 5 7 8 5 16 2 10-2 7-4 6-7 3-8v-27l-4-8-8-7-9-3z" fill="#090909"/>
<path transform="translate(940,380)" d="m0 0h20l16 3 12 4 12 7 10 9 6 9 1 5-1 1-38 3-4 1h-11l-5-4-9-3h-18l-10 3-8 6-6 9-2 5v11l5 12 5 6 9 5 4 1h15l18-2 7-4 3-5-4 1h-13l-2-3v-15l5-3 14-2 19-1 28-4 2 4 3 21 2 26 1 8-1 1-8 1h-11l-3-3-2-4h-6l-10 7-13 5-13 3-18 3h-29l-17-4-14-6-9-7-7-8-8-17-1-3v-33l4-10 9-12 10-9 16-8 15-5z" fill="#0A0A0A"/>
<path transform="translate(481,1199)" d="m0 0 5 1 8 19 8 16 12 25 14 29 11 23 8 14-1 4-39 19-28 13-38 19-5-5-12-25-20-41-12-26-12-24 1-4 13-6 9-4h5l9 21 15 30 12 26 5-1 9-5h2l-3-9-11-23-16-33 1-5 12-6 3-2h4l8 16 14 29 9 20 5-1 10-5h2l-7-16-27-54-5-11 1-4 9-6 11-7z" fill="#090909"/>
<path transform="translate(493,643)" d="m0 0h13l10 1v4l-24 36-8 7-8 6-7 8-1 2v14l3 3 5-5 10-13 8-11 9-11 11-12 11-7 7-3h11l7 3 5 4 7 11 5 12 1 12-2 12-6 16-9 17-8 12-8 10-9 9-13 9-5 2-14 1h-17l1-5 12-18 13-20 4-4 10-4 4-5 6-15-1-7-1-1h-5l-6 7-9 12-14 18-5 6-16 14-9 3h-10l-12-6-7-9-5-11-2-7v-11l4-15 7-16 8-14 10-14 11-13 10-7 13-6z" fill="#090909"/>
<path transform="translate(1052,380)" d="m0 0h7l30 6 11 3 1 2-7 32-5 23-1 8v10l3 7 4 5 10 5 9 2 9-1 9-5 4-5 3-8 4-16 3-20 4-21 3-7 2-1 40 8 5 2v8l-11 55-6 16-7 10-10 10-14 7-7 1h-30l-13-2-19-5-15-6-10-7-7-6-8-11-3-7-2-15v-8l1-4 1-16 3-6 1-13 3-10 2-14z" fill="#080808"/>
<path transform="translate(504,803)" d="m0 0h4l-1 8-6 19-5 19-6 5-16 3-5 16-9 35-5 18 2 6 10 10 2 4-1 10-3 9-4 17-1 2-1 13-4-2-11-13-7-7-9-11-12-13-7-8-9-9-7-8-15-16-7-7-9-11-1-5 6-20 3-12 3-7 8-5 52-17 29-9 40-13zm-71 64-28 8-6 2 6 7 13 12 10 10h3l6-24 4-13v-2z" fill="#090909"/>
<path transform="translate(452,1054)" d="m0 0 5 1 4 5 2 5 2 18 3 17 7 39 4 23 5 24v7l-5 2-14 1-33 7-18 3-43 8h-5l-2-7-2-16-4-22 1-5 69-12 17-1-3-24-2-9-2-14-2-8-2-15-2-8v-12l15-3z" fill="#090909"/>
<path transform="translate(580,531)" d="m0 0 5 1 7 10 13 16 13 17 12 15 7 10 5-1 13-12 13-10 14-11 16-13 9-6 5 1 8 11 5 9 1 3-12 8-18 14-16 13-17 13-13 11-26 20-5 4-4-1-8-10-7-9-12-15-13-17-13-16-8-10-8-9-2-3 1-4 8-7 10-8 14-12z" fill="#090909"/>
<path transform="translate(1234,425)" d="m0 0 6 1 26 11 14 7-3 9-11 24-13 30-13 31-7 14-3 1-31-13-12-6 1-5 8-17 7-15 12-29 10-23 8-19z" fill="#080808"/>
<path transform="translate(345,996)" d="m0 0h22l59 2h37l1 7v45l-1 1h-7l-7-2-23-1h-74l-8-1v-29z" fill="#0B0B0B"/>
<path transform="translate(1018,819)" d="m0 0 3 1 5 18 10 41 12 55 3 17v8l-37-2h-72l-47 3v-2l25-3 34-1 4-1h29l10 1 52 1-9-45-10-45-11-44-20 3h-13v-1l27-3z" fill="#FEFEFE"/>
<path transform="translate(763,998)" d="m0 0 8 2 28 9 32 8 37 7 10 2 2 4-2 16-5 61-3 59-1 14-23 10-20 9-5 2-1-2 26-12 20-8 1-1v-21l1-28 2-18 1-23 3-25 2-26 1-8-11-3-32-6-30-7-16-5-25-8z" fill="#FEFEFE"/>
<path transform="translate(1247,1033)" d="m0 0 2 2 8 33 5 26 4 32 1 10v22l-13 8-21 11-28 12-29 11-31 10-7-1-7-5 2-1 8 4 7-1 20-6 30-11 30-13 32-16 5-3v-9l-3-34-6-38-7-32z" fill="#FEFEFE"/>
<path transform="translate(1058,963)" d="m0 0 14 2 35 7 36 9 24 8-1 3-27 10-23 7-33 8-16 3-2-5-4-25v-6h1l5 28v5l31-6 29-8 30-10 4-2-10-4-24-7-30-7-31-6-8-1z" fill="#FEFEFE"/>
<path transform="translate(1043,1027)" d="m0 0h1l-1 15-3 17 2 1-2 1-6 35-10 54-4 16-40-2h-19l-26 2-14 2h-5l-1-6 2 3 23-2 20-1h25l20 1h13l9-44 9-53 6-36z" fill="#FEFEFE"/>
<path transform="translate(1215,1013)" d="m0 0 2 1-3 10-15 35-12 25-12 23-14 24-12 20-15 22-10 14-6 8-7-2 3-1 4-1 13-18 8-12 13-20 14-24 12-22 12-23 11-24 13-30z" fill="#FEFEFE"/>
<path transform="translate(1050,974)" d="m0 0h1v11l-4 31-2 7-4 2-20 2-17 1-35 1h-25l-27-1-30-3-2-2 23 1 12 2h80l1-1 7-1 35-2 4-30 2-14z" fill="#FEFEFE"/>
<path transform="translate(859,808)" d="m0 0 24 6 27 5 2 1-1 12-9 44-6 36-7 45-1 4-8 2h-6l-1-1v-5l1 4 12-3 3-18 8-50 10-54 3-13 1-2-11-1-24-5-16-5v11h-1l-1-12z" fill="#FEFEFE"/>
<path transform="translate(806,800)" d="m0 0v3l-11 16-10 15-12 20-13 22-16 30-15 33-12 30-1 3-6-2-9-6 2-1 12 7 2-9 15-35 13-28 15-28 15-25 10-16 12-17z" fill="#FEFEFE"/>
<path transform="translate(868,967)" d="m0 0 3 1 5 31 3 19v5l-21-3-30-6-28-7-31-10-1-2 10-2-1 2h-3v2l9 2 19 6 39 9 27 5 8 2-6-47-2-4-25 5-13 3-4-1 28-7z" fill="#FEFEFE"/>
<path transform="translate(819,792)" d="m0 0 5 1 20 9 9 4 1 1 1 7 3 44 3 34 7 55v8h-1l-5-30-3-23-3-28-4-52v-15l-9-3-21-9h-4z" fill="#FEFEFE"/>
<path transform="translate(1e3 1236)" d="m0 0h1l-1 8-9 31-10 30-8 21-3-1 1-2 2-3 10-32 11-33 5-16h-61l11 31-1 3-7-19-5-15 1-2h49z" fill="#FEFEFE"/>
<path transform="translate(1059,809)" d="m0 0h4v25l-3 50-3 40v35l-2-2-4-22-2-9 1-4 4 15 2-39 2-22 2-46 2-19h-6z" fill="#FEFEFE"/>
<path transform="translate(1063,1028)" d="m0 0 2 3 6 45 5 53 3 40v10l-3-1-2-41-3-31-2-21-3-27-3-25z" fill="#FEFEFE"/>
<path transform="translate(722,1057)" d="m0 0 3 4 12 24 12 21 13 22 16 24 10 14 14 19 14 17-1 3-4-5-13-16-14-19-13-19-10-15-9-15-15-27-12-23-3-6z" fill="#FEFEFE"/>
<path transform="translate(955,666)" d="m0 0 1 3-12 34-8 27-5 18-2 2-42 4-16 1v-1l39-5 19-2 2-10 10-35 6-18z" fill="#FEFEFE"/>
<path transform="translate(868,955)" d="m0 0h1l1 9-15 4-30 7-35 10-26 9-8-2-5-2 3-1 6 2 8-1 35-12 34-9 29-7h2z" fill="#FEFEFE"/>
<path transform="translate(1241,813)" d="m0 0 7 2 6 5v32l-3 30-6 36-6 28-3 9-2 1 4-17 5-23 4-23 3-23 1-16v-34l-10-6z" fill="#FEFEFE"/>
<path transform="translate(925,755)" d="m0 0h3l-1 9-12 50-1 2-13-1-25-5-14-4-4-2v-8h1l1 6 9 4 12 3 26 4h5l12-50 2-6h-10v-1z" fill="#FEFEFE"/>
<path transform="translate(682,1142)" d="m0 0h1l1 26 16 8 19 9 28 11 41 13 13 3 6-2-4 4-9-1-25-7-32-11-26-11-23-11-5-2-1-2z" fill="#FEFEFE"/>
<path transform="translate(975,1168)" d="m0 0h23l20 1 1 1-1 9-6 27-6 23-2 3h-20v-1l18-1 6-21 7-29 1-8-25-2-16-1z" fill="#FEFEFE"/>
<path transform="translate(979,680)" d="m0 0 3 4 11 28 12 34 6 2 46 4 6 1-1-21-5-5v-2l4 2 3 4v23l-20-1-39-3-3-5-10-29-13-33z" fill="#FEFEFE"/>
<path transform="translate(1125,798)" d="m0 0 5 5 10 13 12 17 17 26 8 13 14 24 9 17-1 3-13-24-13-22-14-22-14-21-13-18-7-9z" fill="#FEFEFE"/>
<path transform="translate(890,1079)" d="m0 0h1l12 54 9 35-8 3-25 6-3-1 19-6 14-3-12-48-7-34z" fill="#FEFEFE"/>
<path transform="translate(1058,954)" d="m0 0 2 4 33 6 32 7 26 8 10 4-3 1-26-8-34-8-38-7-2-1z" fill="#FEFEFE"/>
<path transform="translate(975,685)" d="m0 0 2 2 11 29 11 30v3h-66l2-3v2l21-1h40l-11-32-10-27z" fill="#FEFEFE"/>
<path transform="translate(663,835)" d="m0 0 2 2 3 37 5 32 7 33 2 11-3-2-9-43-6-42-1-14z" fill="#FEFEFE"/>
<path transform="translate(1263,1171)" d="m0 0v3l-11 12-15 14-13 12-11 9-12 10-13 9-5 2 5-5 19-14 13-11 13-12 20-18 7-8z" fill="#FEFEFE"/>
<path transform="translate(1080,1236)" d="m0 0 1 3-3 5-21 21-8 7-13 12-11 9-13 11-4 3-2-1 10-9 13-10 17-16 15-14 13-12z" fill="#FEFEFE"/>
<path transform="translate(1204,924)" d="m0 0 3 3 16 35-1 3-16 9-19 9-8 4-3 1h-7l-2-2h7l12-5 20-10 14-8-7-17-8-18z" fill="#FEFEFE"/>
<path transform="translate(1170,1249)" d="m0 0 1 4-9 6-21 12-34 18-23 10-2-1 1-3v2l29-13 22-12 21-12 13-8z" fill="#FEFEFE"/>
<path transform="translate(890,1235)" d="m0 0h13l28 2 2 1 13 38 11 28 4 9-1 3-10-23-13-36-5-14v-3l-31-3-11-1z" fill="#FEFEFE"/>
<path transform="translate(860,844)" d="m0 0h1l2 12 3 36 2 13 3 26 1 8v9h-1l-6-43-2-20h-2v-2h2l-3-32z" fill="#FEFEFE"/>
<path transform="translate(779,763)" d="m0 0h2l4 5 5 5-8 3-36 12-32 13-5 1 4-3 26-11 27-10 19-5h2l-5-5z" fill="#FEFEFE"/>
<path transform="translate(1179,1277)" d="m0 0h1v19l-3 13-4 4-15 5-36 9-11 2h-5l4-2 27-6 30-8 6-3 3-7 2-8z" fill="#FEFEFE"/>
<path transform="translate(1265,1179)" d="m0 0 2 1-3 31-4 23-6 22-4 11-1-3 8-27 4-22 3-27 1-5h-2z" fill="#FEFEFE"/>
<path transform="translate(1025,1171)" d="m0 0 14 1 28 7 12 4 1 5v30h-1l-2-29-2-5-25-7-25-5z" fill="#FEFEFE"/>
<path transform="translate(761,1260)" d="m0 0h2l1 3-3 12-1 8v11l2 14 2 9h-3l-3-2h3l-3-12-1-5v-18z" fill="#FEFEFE"/>
<path transform="translate(908,688)" d="m0 0 2 1-8 8-11 9-14 14-8 7-11 11 2-5 26-26 11-9z" fill="#FEFEFE"/>
<path transform="translate(851,689)" d="m0 0h3l-1 47-1 9-7 8v-3l5-6 1-36 1-17-2-1z" fill="#FEFEFE"/>
<path transform="translate(861,1253)" d="m0 0 4 2 5 6 2 26 1 20-3-1h2l-1-2-3-26-1-17z" fill="#FEFEFE"/>
<path transform="translate(1008,1236)" d="m0 0h8v1h-7l-3 10-8 26-9 27-1-3 14-45 4-14z" fill="#FEFEFE"/>
<path transform="translate(1267,1041)" d="m0 0 4 2 10 8 16 16 10 13-1 2-13-15-5-5v-2l-4-2-11-11-6-5z" fill="#FEFEFE"/>
<path transform="translate(776,1139)" d="m0 0 5 5 12 17 18 24 5 7-1 2-14-18-13-18-10-14z" fill="#FEFEFE"/>
<path transform="translate(789,1217)" d="m0 0 8 1-6 7-7 7-9 12-8 13-4-2 5-5 12-17 12-13 1-2z" fill="#FEFEFE"/>
<path transform="translate(1110,780)" d="m0 0 2 1-2 4-27 13-12 5h-3v-2l23-10 17-8z" fill="#FEFEFE"/>
<path transform="translate(733,986)" d="m0 0 5 1 15 6 4 1v2l-15 8-13 6-2-1 19-10 5-3-16-8z" fill="#FEFEFE"/>
<path transform="translate(615,1143)" d="m0 0h1v49h-1l-2-16v-19z" fill="#FEFEFE"/>
<path transform="translate(706,773)" d="m0 0 2 1-15 14h-2v2l-8 7-11 11h-2v-5l2 2 22-22 11-9z" fill="#FEFEFE"/>
<path transform="translate(1055,678)" d="m0 0 4 1 1 1 3 38v5l-3-3-2-34-1-6z" fill="#FEFEFE"/>
<path transform="translate(1177,691)" d="m0 0h1v16l-3 17 9 7 10 7h-3l-17-11-2-4 3-11z" fill="#FEFEFE"/>
<path transform="translate(601,812)" d="m0 0h1l2 29 3 17-1 3-4-16-2-15v-12z" fill="#FEFEFE"/>
<path transform="translate(775,750)" d="m0 0 7 6 10 10 4 2 12-1 10-1-4 2-14 3h-6l-9-8-7-8-3-3z" fill="#FEFEFE"/>
<path transform="translate(1006,1329)" d="m0 0 2 1 3 2 31 2v1h-22l-23-1v-2z" fill="#FEFEFE"/>
<path transform="translate(611,1127)" d="m0 0 2 1-1 10-3 18-1 22h-1v-26l2-15 2-7z" fill="#FEFEFE"/>
<path transform="translate(1297,1243)" d="m0 0h2l-2 4-11 12-7 6 5-10 5-5z" fill="#FEFEFE"/>
<path transform="translate(1018,960)" d="m0 0h17l16 2v3l-23-2-10-2z" fill="#FEFEFE"/>
<path transform="translate(885,964)" d="m0 0h2v8l-3 22h-1v-14l2-13-3 1h-7v-2z" fill="#FEFEFE"/>
<path transform="translate(1007,773)" d="m0 0 2 3 10 34v4h-2l-7-26-3-11z" fill="#FEFEFE"/>
<path transform="translate(681,1045)" d="m0 0 2 1-16 15-17 17v-3l25-25z" fill="#FEFEFE"/>
<path transform="translate(1253,702)" d="m0 0 5 2 9 5 1 2 4 2 9 9-1 2-13-11-14-10z" fill="#FEFEFE"/>
<path transform="translate(696,1023)" d="m0 0 1 4-3 5-17 12-9 8-2-1 11-10 17-13z" fill="#FEFEFE"/>
<path transform="translate(877,983)" d="m0 0 2 3 3 10 1 1 1 11-1 6h-1l-5-26z" fill="#FEFEFE"/>
<path transform="translate(664,1271)" d="m0 0 4 2 18 13-2 1-3-2-2 1-11-9-4-4z" fill="#FEFEFE"/>
<path transform="translate(941,1332)" d="m0 0 8 1v2l-21 2h-22v-1l33-2z" fill="#FEFEFE"/>
<path transform="translate(1055,979)" d="m0 0 2 4 1 13-6 1 2-17z" fill="#FEFEFE"/>
<path transform="translate(651,727)" d="m0 0 2 1 4-1-5 5-13 12v-3l7-9z" fill="#FEFEFE"/>
<path transform="translate(874,1232)" d="m0 0 16 2v1h-10l-6-1 1 20 3 5 3 4-4-2-3-2-1-3v-23z" fill="#FEFEFE"/>
<path transform="translate(1135,773)" d="m0 0 1 2-13 8 2 4 9 11-1 2-10-11-3-4 2-4z" fill="#FEFEFE"/>
<path transform="translate(626,861)" d="m0 0 2 1-7 11-3 2-1-5 6-7z" fill="#FEFEFE"/>
<path transform="translate(720,972)" d="m0 0 15 8 14 7-3 1-17-8-9-5z" fill="#FEFEFE"/>
<path transform="translate(881,1040)" d="m0 0 2 2 2 9v4l-5 1v-14z" fill="#FEFEFE"/>
<path transform="translate(1316,1113)" d="m0 0 3 1-1 5-7 7-4 2 2-5z" fill="#FEFEFE"/>
<path transform="translate(1082,1365)" d="m0 0 12 2 25 1v1h-28l-9-1z" fill="#FEFEFE"/>
<path transform="translate(921,1202)" d="m0 0 2 3 8 25v2h-3l-6-23z" fill="#FEFEFE"/>
<path transform="translate(1245,789)" d="m0 0 4 2 5 5 1 15-4-1h2l-2-13-6-7z" fill="#FEFEFE"/>
<path transform="translate(1226,984)" d="m0 0 1 3-8 22-4-2 3-3z" fill="#FEFEFE"/>
<path transform="translate(1366,934)" d="m0 0h1v9l-2 16h-2l-2-5 1-3h2l1-13z" fill="#FEFEFE"/>
<path transform="translate(985,643)" d="m0 0 25 1v1l-28 2v-2z" fill="#FEFEFE"/>
<path transform="translate(632,1131)" d="m0 0 7 6 5 6 6 5h-3l-8-7-7-8z" fill="#FEFEFE"/>
<path transform="translate(870,731)" d="m0 0 2 1-5 6h-2l-2 4-6 5 1-4z" fill="#FEFEFE"/>
<path transform="translate(1109,1204)" d="m0 0v3l-9 11-2 2-3-1 9-9z" fill="#FEFEFE"/>
<path transform="translate(720,560)" d="m0 0 5 3 1 2 2-3 2 7-4 1-6-8z" fill="#FEFEFE"/>
<path transform="translate(628,1095)" d="m0 0 1 2-8 15h-3l2-4z" fill="#FEFEFE"/>
<path transform="translate(870,1313)" d="m0 0 4 2 1 6v8l-2-4z" fill="#FEFEFE"/>
<path transform="translate(850,752)" d="m0 0h2v6l-7 2-1-2 5-5z" fill="#FEFEFE"/>
<path transform="translate(990,651)" d="m0 0h2v2l12 3-4 1-11-2v-3z" fill="#FEFEFE"/>
<path transform="translate(1090,1226)" d="m0 0 2 1-5 7h-2v-6z" fill="#FEFEFE"/>
<path transform="translate(557,961)" d="m0 0h2l2 8v6l-2-4v-3l-3-1z" fill="#FEFEFE"/>
<path transform="translate(1287,822)" d="m0 0 6 5 7 9-2 1-7-8-4-5z" fill="#FEFEFE"/>
<path transform="translate(560,1060)" d="m0 0h3v13h-2z" fill="#FEFEFE"/>
<path transform="translate(452,1054)" d="m0 0 5 1 1 2-7 2-4-1z" fill="#FEFEFE"/>
<path transform="translate(1061,1015)" d="m0 0h1v5l-8 2h-4l1-3 9-1z" fill="#FEFEFE"/>
<path transform="translate(710,980)" d="m0 0 1 4-5 14h-3z" fill="#FEFEFE"/>
<path transform="translate(712,1317)" d="m0 0 7 4 5 5-5-1-5-4v-2h-2z" fill="#FEFEFE"/>
<path transform="translate(608,1182)" d="m0 0h1l2 18-4-4 1-4z" fill="#FEFEFE"/>
<path transform="translate(1124,770)" d="m0 0h6l-5 5-6 4-3-1 8-5z" fill="#FEFEFE"/>
<path transform="translate(1270,820)" d="m0 0h8l4 6-6-2-6-3z" fill="#FEFEFE"/>
<path transform="translate(850,1369)" d="m0 0 2 1-2 1z" fill="#FEFEFE"/>
</svg>
