<?xml version="1.0" encoding="UTF-8"?>
<svg version="1.1" viewBox="0 0 2000 2000" width="1280" height="1280" xmlns="http://www.w3.org/2000/svg">
<path transform="translate(942,571)" d="m0 0h58l23 2 26 4 25 6 36 12 29 11 25 13 22 12 19 12 20 14 9 7 14 12 10 9 8 7 20 20 9 11 11 14 16 23 15 25 10 18 10 21 11 29 9 31 6 28 4 23 4 43v30l-4 42-5 30-7 29-12 36-11 24-11 21-13 23-12 20-12 17-13 16-28 30h-2v2l-8 7-12 11-14 11-15 11-27 18-14 8-24 12-27 11-41 14-30 7-31 5-23 2h-54l-21-2-26-4-28-6-25-7-22-8-27-11-19-10-22-12-17-11-12-8-16-12-11-9-14-12-18-18-7-8-12-14-9-11-13-17-12-18-14-24-8-15-13-30-11-33-8-32-2-15-2-5-2-18-2-6-1-20v-50l1-20 3-12 1-13 3-15 3-16 10-36 8-22 8-18 6-12 14-24 11-20 10-14 10-13 13-16 11-13 23-23 11-9 10-9 19-14 20-14 13-8 18-10 17-9 32-13 36-12 19-5 15-2 9-2 26-3zm21 11-42 1 2 4 8 7 9 12 2 2h38l3-1 12-17 6-8zm50 1-11 7-10 13-2 4 3 1 26 2 16 2h10l-3-9-6-11-6-7-8-2zm-115 4-11 4-7 8-8 16h11l12-2 39-4-3-5-10-11-8-5-3-1zm144 2 8 21 3 1 17-3 15-2 4-2-1-2-27-9-16-4zm-168 5-19 5-23 8-2 4 35 3 4-5 6-13zm222 16-13 2-10 3v2l48 12 11 2-3-5-8-7-14-7zm-270 5-1 3h-11l-8 4-11 9-3 5 9-1 16-5 25-6 10-2 1-2-16-4zm160 0-4 5-13 24v1l7-1 19-12 16-8 11-5v-2l-26-2zm-38 1 8 14 6 13h4l5-12 7-15zm183 0 6 8 13 10 5 4 36 15 7 2-3-5-9-8-19-12-17-8-16-6zm-199 1-14 2-18 1v2l15 6 21 8 14 7 5 2 3-1-8-13-7-11-3-3zm113 2-28 10-19 8-13 7-1 3h8l12-2 36-3h13l-1-12-3-10zm9 2 3 11 3 10 1 1 32 2 45 8 17 4 4 1-5-10-7-6-13-4-28-7-44-9zm-262 1-13 4-20 9-14 9-13 10-5 4-2 3v3h5l16-9 20-8 7-3 16-14 4-6zm79 1-3 7-3 12v5l9-2 10-1h25l17 2 9 2 9-1-4-3-10-5-28-10-15-4zm-9 2-37 9-34 9-9 3-8 7-7 10-1 4 24-7 27-7 41-6 3-9 3-11 1-2zm192 23-34 2-30 1 1 2 20 6 27 6 17 5h2l-1-17-1-5zm8 2 1 17 2 6 29 11 25 11 25 12 19 11 6 2 2-8v-27l-5-15-5-5-32-7-37-6-20-2zm104 0v6l5 5 13 6 20 8 11 5h3l-1-6-8-6-23-11zm-283 1-19 1-4 19v7l10-3 36-12 29-8 1-2-3-1-20-1zm-122 4-27 12-19 10-10 8-5 8 1 3 20-11 28-12 8-4 5-6 3-6v-2zm87 0-35 6-28 7-24 7-2 6-2 13v12l4 20 2 2 25-15 22-12 29-14 14-6 2-6 1-10v-10zm136 2v4l10 7 18 11 13 10 18 14 11 9 7 8 2-1-3-26v-13l-3-3-30-9-22-6-13-4zm-45 2-34 11-36 12-8 4-1 1-2 49 13-13 5-6 8-7 11-10 11-9 14-12 19-14 7-5v-1zm19 1-11 6-14 11-17 14-13 11-13 12-15 14-18 18-2 4v6l12-1 22-3 39-4 3-7 8-28 10-30 9-20zm6 1-3 5-7 20-11 33-8 28v1l63-1-10-29-15-39-8-18zm9 1 3 9 10 24 11 29 7 21 2 3 25 2 5 1 27 2v-21l-7-8-13-12-14-11-15-12-34-25-4-2zm202 9 1 10 2 8 1 10-3 16-2 5v5l15 10 16 11 16 12 13 11 8 7 11 11-1-10-9-44-7-23-6-12-5-5-30-15-18-7zm-423 8-15 6-17 8-17 10-10 7-4 5-6 18-6 25-5 31-1 17 7-6 21-21 11-9 10-9 14-11 14-10 9-7-3-9-2-9v-20l1-16zm313 1 1 7 2 37 7 8 10 10 7 8 8 7 16 5 17 4 6-3 10-10 13-17 3-5-1-4-11-7-18-10-21-10-15-7-21-9-11-4zm165 2 2 4 5 6 12 7 8 3-1-4-14-10-10-6zm-378 7-28 13-23 12-15 9-18 11-2 1 1 4 10 11 7 8 10 10 7 1 30-7 8-4 9-9 3-5 1-35 1-20zm-162 4-9 6-15 13-10 10-3 5v2l4-2 9-6 15-12 8-7 3-6v-3zm552 10 3 10 8 27 5 27 2 23 7 8 11 12 9 11 14 15 16 16h2l4-22v-21l-4-25-6-16-10-14-11-13-8-8-14-11-9-8-18-11zm-564 14-12 9v2l-4 2-12 12-8 7-12 13-9 11-6 10-3 8-4 26v14l5 31 5-3 13-11 9-7 5-5 8-9 7-8 3-3 1-10 1-19 6-36 9-33zm-26 12m518 4-11 16-9 10-6 7-2 2 8 3 19 5 40 14 25 11 17 8 3 1v-13l-7-8-16-13-11-9-15-12-21-14-13-8zm-103 2 1 19 10 2h10l-3-5-16-16zm-308 5-16 12-13 10-11 9-14 12-17 16-15 15-3 5 1 3 17-9 19-10 19-9 33-13 26-8 3-3-8-7-7-8-9-12-2-3zm184 15-9 1-3 8-12 51 2 1 28 1h36l27-2 6-2-12-46-5-12zm65 0 12 43 4 14 13-2 24-6 3-3v-40l-5-2-23-3zm-87 1-56 7-7 1v17l1 20 9 4 20 5 21 4 5-1 9-40 3-13v-4zm148 5v40l17-7 22-10 3-3-9-10-5-5-5-2zm-221 3-7 3-8 7-9 11-1 3 27 11h2l-1-35zm261 3 2 6 4 5 5-1 6-5-3-3-8-2zm-287 4-14 3-3 3 11 8 4-2 8-10-1-2zm312 3-12 7 1 4 9 10 15 20 10 14 10 15 14 22 14 25 14 27 11 22 8 20 5-2 4-7 7-33 5-30 2-15 2-40v-14l-25-13-30-13-30-11-25-7zm-344 5-37 12-32 13-25 12-20 11-5 4v11l2 24 4 27 6 34 6 25 4 5 14 9 8 4 15-37 14-30 13-25 14-24 10-17 15-22 9-12 8-11v-4l-15-9zm324 8-23 12-22 9-1 5-2 63-3 36-4 43 1 4 44 8 30 7 26 9 12 4 9-2 20-10 19-10 2-1-1-6-19-39-14-26-16-27-15-24-14-20-14-19-8-10-5-6zm-295 6-12 17-10 14-10 15-12 20-14 24-14 27-18 41-8 19v4l23 11 14 6 8 1 24-9 26-8 32-8 18-4 2-1-1-14-5-33-4-39-1-4-2-35-3-30-11-5-14-6-6-3zm510 1 2 21v11l-2 14-4 15 1 4 16 16 13 17 9 13 4 4-4-25-8-34-8-24-7-15-8-14-2-3zm-729 9-5 8-12 28-7 21-7 30-4 26v6l4-4 10-16 10-13 12-14 7-8-1-7-2-5-2-22v-14l1-4v-10l-1-2zm662 2-1 9 10 5 4 1-2-5-10-10zm-402 4v33l2 4 2 34 2 10 3 30 2 14 2 21 2 6 12-2 4-20 3-22 6-36 9-48 3-11-6-2-30-7zm197 2-24 6-6 2 4 19 11 46 7 35 3 9 1 9h1l4-36 1-7 2-48 2-17v-18zm203 11-2 54-5 34-7 33 1 4 13-11 8-7 6-5 7-8 10-11 12-17 9-16 1-5-10-13-9-11-13-10-15-9zm-246-1-18 2h-80l-3 21-10 55-9 53v6l22-2 39-1 8-2h29l45 3 14 1-10-50-13-57-7-29zm-354 15-9 7-10 11-12 17-6 9 1 5 9 14 10 13 12 13 12 12 11 9 2 1-5-25-6-34-5-42-1-10zm-39 33m703 1 2 2v-2zm-704 1m-2 1v3l2-3zm708 0 2 5 17 33 9 20 9 22 4 1 1-1v-27l-9-16-11-15-8-10-11-11zm-713 1-6 4-9 10-12 16-12 19-6 12-1 3v38l3 9 2 1 3-8 4-17 9-25 8-18 8-16 12-22-1-5zm704 3-9 16-12 16-9 10-2 4-3 1-5 6-8 7-10 9-11 8-6 5-3 5-2 11-1 4 13 40 3 9 11 10 13 10 13 12 7 7 11 14 10 16h3l17-36 8-19 12-36 3-12 1-13-2-15-8-23-11-26-8-16-10-19zm-456 3m-243 11-4 5-13 27-13 31-6 20-6 23-1 6v9l6 20 14 37 8 16 13 24 3 3 13-21 9-12 12-14 9-9 11-9 16-13 6-5 4-9 1-4v-8l-11-36-4-12-8-7-14-11-8-7-7-8-14-15-11-15-4-6zm757 55-3 2-1 7v31l3 16 1 16 2 5h2l4-19v-27l-2-12-1-13-2-5zm-130 2m-322 13-2 2-28 2-1 1-5 43-1 14 1 1 32 3 7 1 20 1h23l26-1 16-2 29-2 5-2 2-9 2-23 3-15v-9l-1-1-27-4zm-229 5 4 16 6 17 2-3 7-18-1-3-16-8zm365 1 3 19 5 29 1 3 11-1 23-5 28-8 30-10 4-3-25-8-28-7-34-7-13-2zm-503 1-1 8v41l3 20 2 4 4 1 1-1 1-21 2-12-8-36-2-4zm330-2-11 2 1 11 4 12 1 6 2-3 4-28zm-20 4-32 7-31 9-20 7-8 3v2l29 9 33 8 38 7h2l-2-20-4-31zm359-1-27 15-14 7v2l28 13 4 2h3l9-25v-8l-2-6zm-507 10-8 24-2 9 1 5 4 1 14-7 19-10 8-4-4-3-23-11-7-4zm514 10-7 20v3l14 8 4 2-2-12-7-19zm-60 7-17 6-15 6-32 9-25 5-16 3 3 14 5 35 7 66 2 41 30 13 3 1 10-13 11-16 13-20 11-18 14-25 15-28 13-29 10-24 2-5v-3l-28-14-10-4zm-118 2-2 2-2 16v5l11-1-1-15-1-7zm312 2-4 10-7 25-11 27-15 32-6 12 1 5h3l10-10 11-14 10-14 9-16 5-12v-19l-2-14-3-12zm-607 1-16 8-17 9-11 6 2 5 19 39 15 29 14 24 12 19 11 16 9 12 14 18 10 14 6-2 19-9 20-8 2-2v-16l1-27 2-7 1-32 1-15 2-12 2-31 1-9-9-3-46-9-30-8-26-9zm464 17-4 9-12 29-16 33-8 14-7 14-12 21-15 24-14 20-10 14v4l14 8 6 1 20-6 33-12 28-12 25-12 14-8 3-5-4-39-6-36-9-41-2-5-9-7-9-6zm20 4m-188 4-6 2-2 9-2 21-1 5h-2v2h2l-6 39-12 59v4l23 4 19 5 10 3-1-15-2-39-2-11-2-30-2-8-2-22-3-22v-6zm-349 1-5 6-7 29-7 41-3 25-1 18v23l8 5 27 13 29 11 48 15 6 1 11-6 2-4-10-13-16-21-14-20-11-17-12-20-16-29-8-15-14-32-4-10zm331 1-18 3-34 2-17 2h-23l-59-5 1 7 6 27 8 38 11 47 4 17 3 1 23-2 24-1h14l39 1 6-28 5-25 2-11 3-18 3-16 2-5-1-3 4-25v-6zm-158 2m-307 1-1 3-1 27 2 9 10 13 9 13 9 11 8 8 4 2-2-7-8-13-10-19-8-19-9-25zm118 9-14 12-11 10-8 7v2h-2l-11 14-7 10-10 16-3 7 1 5 18 21 13 10 12 8 8 4v-26l2-24 5-34 8-36 1-6zm566 1 9 39 5 31 3 43 6-3 12-12 13-18 9-12-1-6-9-16-9-11-9-10-16-16-11-9zm-375 15-1 2-2 40-2 13-1 27v40l12-3 22-6 1-4-5-18-11-50-7-40-1-1zm490 8-15 23-8 10-11 12-8 9 1 8 4 18 1 23v18l4-5 8-16 10-26 7-24 7-34 1-6v-10zm-800 18-1 2 2 15 5 24 10 30 13 28 5 9 3 3v-29l1-20 3-10v-5l-12-12-7-8-10-12-10-14zm466 5m280 29 1 2zm-705 1m709 8-12 11-11 9-12 11-10 13-2 4-3 35-3 21-8 30-2 10 4-2 11-9 16-15 15-15 9-11 8-13 5-16 2-11v-13l-1-17-4-21zm-703 11-1 1-1 7v53l6 16 5 10 9 11 11 12 11 11 11 9 13 11 11 8h2v2l2-1-8-22-6-24-6-34-1-11-7-8-11-12-13-16-19-19-5-4zm44 31 2 4 9 10 3 2v-10l-13-6zm602 0-14 7-19 10-27 12-37 14-17 5 2 4 11 11 9 13 3 5 4-1 17-13 14-11 14-12 13-12 8-7 11-10 8-7 2-6v-2zm-304 3-29 2h-12l2 9 12 41 4 10 12 1h34l20-1 3-6 10-44 1-9-17-2-17-1zm64 3-7 30-6 24v4l41-3 20-3 8-1v-17l-1-21-10-4-25-6-15-3zm-119 3-28 8-2 1-1 23v19l1 1 29 3 24 2-1-9-10-38-4-10zm-222 2v8l2 7 13 13 14 11 17 14 17 12 18 12h3l12-18 10-12 4-4-1-2-17-4-41-14-27-12-21-10zm582 2-9 10-23 23-11 9-9 8-16 12-14 11-2 2 1 5 4 13 1 6v13l-4 19 36-18 23-13 5-6 7-21 6-23 4-22 3-28zm-401 8-17 7-21 10-1 2 7 8 9 8 12 2 15 2-1-39zm220 0 1 26 1 9h6l10-9 11-12-1-4-16-6-9-4zm35 15-8 11-1 3h10l12-4 1-2-12-8zm-434 1 1 13 6 29 7 24 8 20 6 5 20 11 26 10h3l-3-20v-17l3-13-1-5-16-10-11-8-12-9-11-9-14-12-11-9zm133 7-6 7 11 3h3l-1-5-4-5zm322 7-34 7-7 4-12 13-1 2-2 42-1 12 9-3 20-9 26-14 24-14 8-5-1-4-7-11-9-11-8-8zm-340 5-10 9-12 15-6 10v3l24 14 21 11 23 10 31 12 2-1-4-39-2-6-11-12-19-19-15-4-16-3zm48 7m1 1 4 6 11 11h2l2 4 1-3-1-16-11-2zm231 1-27 3-32 2-12 2-3 8-8 25-12 36-8 18 1 2 8-4 13-11 11-9 16-13 16-15 13-11 8-7 9-8 7-9 1-9zm-206 3v20l2 4 8 7 14 12 10 9 17 13 20 14 13 11 4 2 4-1-8-16-8-19-10-29-7-19-2-3-50-5zm66 5 2 10 14 38 15 36 2 3 3-7 11-35 14-44v-1zm140 10-30 30-8 7-10 9-9 7-17 13-14 11v1h9l34-12 33-11 9-4 1-2 3-42v-7zm204 8-19 14-13 10-5 4-1 2v7l4-2 14-11 12-11 7-7 3-6zm-112 2-15 9-17 10-23 12-16 8-16 7-2 3-4 25 21-3 41-9 29-8 5-3 3-8 1-5v-24l-4-14zm-404 8-4 18v9l5 19 3 5 10 4 19 5 28 5 22 3 12 1h13l-1-11-3-12-17-6-27-11-26-12-22-12-9-5zm108 1-1 7 1 26 2 7 8 3 48 14 10 3h7l-5-5-13-9-16-13-16-12-11-10-11-9zm-194 18m3 2m1 1 5 5 14 9h2l-2-4-11-6-6-4zm547 4-30 15-21 9-5 5-4 8 3 1 26-11 25-13 5-4 3-7v-3zm-514 12 1 7 5 5 10 6 8 4 23 9 7 2-3-9-5-4-20-8-12-5zm355 4-24 9-39 11-3 3 9 2h52l4-2 3-13 1-10zm-195 7 1 15 2 5 1 1h23l27-1 11-1v-2l-29-7-25-7zm-117 2m405 3-27 7-31 7-30 5-3 7-3 14 10-1 55-14 15-5 10-8 6-10v-2zm42 2-28 13-15 6-11 8-5 4-7 9 4 1 16-6 23-12 20-14 7-8zm-431 6 2 6 5 6 10 5 15 5 42 10 16 3 14 1-1-8-3-13-29-2-29-4-30-6zm-37 5 4 6 12 9 15 9 21 10 6 2h4l-2-5-15-14-12-6-31-11zm253 4-2 3 30 13 16 5 24 5h3l4-10 3-14h-52l-18-2zm-48 2-9 2-12 1h-42l2 10 4 12 13-1 18-6 31-14 4-4zm20 2m7 0-8 15-6 12v3l31-1-6-12-7-12-1-3h-2zm-10 1-32 16-15 8-1 3 2 1 14 1h18l5-4 12-23v-2zm19 1 5 10 9 14 2 1 21-1 18-2-1-2-18-6-30-13zm158 7-32 9-18 5 3 3 5 1h19l8-2 12-7 6-7-1-2zm-337 5 5 5 9 7 8 4 4 1 22 1 14-3 1-2-13-3-47-10zm256 15-15 2-16 2-26 1 2 4 18 18 4 2h8l12-3 6-3 9-17 2-6zm12 1-5 8-6 14 10-2 34-12 4-3-2-1-32-4zm-181 3 8 15 6 9 13 3h10l8-7 12-15v-2l-29-2-14-1zm-10 0-15 3-15 2-4 2 4 3 15 5 28 8h2l-1-5-8-17-1-1zm108 3-33 1-8 9-7 9-4 5v2h76l5-1-2-4-8-7-9-10-3-4z" fill="#E4E4E4"/>
<path transform="translate(1312,457)" d="m0 0 5 2 53 37 12 8 23 16 14 9 5 4-1 5-10 15-4 5-2 1-41 2-2 1-16 1-38 1 1 3 27 16 29 19 7 6-1 4-6 9-1 3 19-1 13-3 31-2 11-2 28-2 9-2 19-1 4 2 9 12 8 10 8 9 1 5-5 16-13 38-22 66-2 7 13-4 29-8 51-15 16-5 4 1 12 42 3 8v6l-8 10-12 14-8 8-9 11-18 21-6 5-2 3h-2l-2 5 8 1 64 18 24 7 3 3 12 41 3 10v4l-11 4-57 16-38 12-5 2-4-1-7-24-5-19 1-5 27-9 34-9 8-2v-2l-25-5-51-13-8-4-3-9-7-20v-6l7-8 9-9 7-8 35-35 1-3-61 18-7 2-5-1-9-33-4-9-10-11-10-13-11-14-1-5 7-16-1-5-9-10-11-14-13-16-9-12-2-2h-12l-10 2-8-9-7-9-11-12-17-11-34-23-41-28-18-12-10-6 1-4 14-18 3-3 9-2 17-1 64-1 6-1-6-7-15-10-23-15-18-12 2-6 9-13zm166 194-14 3-19 2-2 1 2 4 7 7 13 17 5 4 4-9 10-23 1-6z" fill="#FCFCFC"/>
<path transform="translate(1524,1171)" d="m0 0 6 1 28 12 29 13 16 7 26 11 4 3-2 9-11 22-9 20-4 5-22 6-58 17-15 4h-3l3 3 18 7 24 10 26 12 2 2-1 5-11 23-6 15-2 2-5-1-33-15-29-13-38-16-4-3 2-6 11-24 9-21 4-4 21-7 41-12 32-8 2-2-14-7-37-16-18-8-2-4 8-15 10-25z" fill="#FDFDFD"/>
<path transform="translate(1583 1e3)" d="m0 0h19l16 4 12 7 7 6 6 8 7 14 4 20 1 6v19l-4 26-5 16-8 16-7 9-10 9-10 5-14 3h-13l-14-3-11-5-9-6-8-8-7-12-4-13-3-13v-28l3-15 2-13 8-20 6-11 8-9 11-7 11-4zm-1 51-9 4-7 8-3 7-2 12v8l2 10 4 6 5 5 6 4 4 1h19l10-5 6-7 3-8v-27l-4-8-9-8-6-2z" fill="#FCFCFC"/>
<path transform="translate(936,381)" d="m0 0h26l17 3 13 5 11 7 9 9 5 10-1 4-27 1-16 3h-7l-4-2v-2l-12-4h-18l-9 2-8 5-6 7-3 10v11l4 11 4 5 8 5 7 2h17l16-3 6-4 2-3h-16l-2-3v-17l1-2 31-2 22-3h13l3 15 2 20v23l-8 3h-8l-5-5-2-3-7 1-11 7-18 6-21 4-21 1-18-2-17-5-10-6-11-10-7-12-4-10v-32l4-12 7-11 10-9 12-7 21-7 11-2z" fill="#FCFCFC"/>
<path transform="translate(482,1197)" d="m0 0 3 1 13 28 18 38 23 47 8 15 1 4-10 5-12 5-35 17-28 13-21 11-4-2-26-52-15-33-17-34 1-4 13-6 9-4h5l9 19 9 20 17 35v2l7-1 9-4-1-6-11-23-16-33-2-6 8-5 11-5 4 2 16 35 13 27v2l10-4 5-3-1-7-15-30-22-46v-4l19-10z" fill="#FCFCFC"/>
<path transform="translate(497,642)" d="m0 0 19 2 1 3-10 15-17 25-8 5-8 6-5 8-1 3v13l3 1 5-5 7-8 8-11 11-14 9-10 7-6 14-7 7-1 11 4 8 7 6 10 3 8 1 8v10l-3 13-10 21-11 18-9 11-9 9-11 8-16 6h-9l-14-3 4-8 18-27 7-10 8-3 5-3 4-5 4-13v-6l-2-3-5 1-10 13-14 18-9 11-12 12-12 6-7 1-11-4-9-8-7-12-3-9v-13l4-15 7-16 10-18 10-13 9-10 12-9 12-5z" fill="#FCFCFC"/>
<path transform="translate(807,405)" d="m0 0 5 1 8 19 2 7-8 5-21 8-24 10-20 9-7 3 2 6 5 9 9-3 28-12 26-11h5l6 12 2 7-8 5-24 10-33 14h-2l6 16 6-1 41-17 19-8 16-7h5l6 10 6 13-1 4-66 27-40 17-16 7-9 4-3-1-9-25-15-36-16-38-4-10 3-3 22-9 45-19 34-14z" fill="#FCFCFC"/>
<path transform="translate(1052,380)" d="m0 0 10 1 25 4 12 3 1 1-1 12-9 42-2 11v9l3 8 8 7 10 4 11 1 9-4 5-4 4-10 6-27 6-31 3-8 12 2 30 6 5 2 1 3-7 37-4 20-5 15-5 10-8 10-11 7-10 4-8 1h-24l-17-2-19-5-15-6-12-8-8-7-6-10-3-10-1-8v-11l1-4 1-16 3-6 2-15 2-8 2-15z" fill="#FDFDFD"/>
<path transform="translate(503,803)" d="m0 0 5 1-2 9-9 34-5 6-5 2-13 2-5 16-5 21-9 33 1 6 4 2 8 8 1 2v7l-9 34-1 7h-4l-18-18-9-11-14-15-7-8-7-7-7-8-14-15-7-8-9-10-1-1v-7l6-22 4-15 5-4 36-12 38-12 36-12zm-68 64-29 8-8 2 5 5 16 15 9 9 3-1 5-20 5-16v-2z" fill="#FCFCFC"/>
<path transform="translate(450,1056)" d="m0 0h8l4 4 1 2 2 21 2 4 2 19 2 8 3 19 7 38 3 16v7l-1 1-18 2-9 2-14 2-30 6-19 3-26 5-2-2-3-22-3-16-2-7v-4l39-6 8-2 16-2 6-2 19-2-3-23-2-8-2-15-3-15-3-17v-12l16-2z" fill="#FBFBFB"/>
<path transform="translate(580,531)" d="m0 0 5 1 10 13 11 14 12 15 10 13 8 11 3 2 14-11 12-10 17-13 13-11 12-8 5 1 8 11 7 9-2 4-14 10-12 9-11 9-15 12-13 10-16 13-14 11-10 9-4-1-9-11-7-9-13-16-12-16-13-16-8-10-10-11 1-5 9-8 14-11 10-9z" fill="#FCFCFC"/>
<path transform="translate(1233,425)" d="m0 0 7 1 37 15 3 2-1 6-10 21-15 36-12 28-7 17-1 1-8-1-17-7-19-8-3-2 2-6 13-29 16-38 10-24z" fill="#FDFDFD"/>
<path transform="translate(345,996)" d="m0 0h20l87 3 12 1 1 2-1 46v3h-8l-13-2-29-1h-60l-10-1v-28z" fill="#FBFBFB"/>
<path transform="translate(858,882)" d="m0 0h2l6 51 4 28v3l-18 4-36 9-29 9-22 8-5-1-12-5 3-1 11 4 7-1 21-8 26-8 32-8 20-4-7-47-3-29z" fill="#4A4A4A"/>
<path transform="translate(1267,1155)" d="m0 0 1 3-18 10-21 11-38 16-36 12-12 3-4-2 2-1 8-1 36-12 32-13 24-11 23-12z" fill="#464646"/>
<path transform="translate(926,756)" d="m0 0h2l-1 9-10 40-2 9-1 1h-7l-30-6-16-5-3-2-1-19v-20l6-1h9v1l-14 1 2 37 15 5 25 5 9 2h4l9-40z" fill="#464646"/>
<path transform="translate(1244,814)" d="m0 0 9 3 2 2v21l-2 29-3 23-7 38-2 7h-1l1-9 6-32 3-23 3-54-6-2z" fill="#464646"/>
<path transform="translate(802,806)" d="m0 0v3l-11 16-14 22-14 24-10 18-8 15-10 21-1-3 16-33 15-27 15-25 15-22z" fill="#454545"/>
<path transform="translate(873,987)" d="m0 0h1l5 31v5l-8-1-36-7-29-7-27-8-2-2 7 1 24 7 29 7 38 7 2 1-3-20z" fill="#454545"/>
<path transform="translate(1e3 1237)" d="m0 0h3l-3 12-14 44-8 23-1-4 11-35 10-31 2-6h-36v-1l5-1z" fill="#464646"/>
<path transform="translate(1158,988)" d="m0 0 8 1v3l-18 7-25 8-32 8-23 4-2-3v-6l2 4v3l26-5 33-9 33-11 2-1z" fill="#494949"/>
<path transform="translate(955,1168)" d="m0 0h35l26 2 3 1-1 9-9 37h-1l1-9 8-36-34-2h-39v-1z" fill="#494949"/>
<path transform="translate(1044,1021)" d="m0 0v3l-27 3-42 2h-27v-1l47-2 16-2 29-2z" fill="#4A4A4A"/>
<path transform="translate(898,1030)" d="m0 0 62 2h24v1l-16 2h-23l-47-4z" fill="#474747"/>
<path transform="translate(1164,1255)" d="m0 0 2 1-18 11-29 16-27 13-5 2-3-1 15-7 19-9 23-13z" fill="#494949"/>
<path transform="translate(663,1271)" d="m0 0 4 2 19 13 16 10-3 1-11-7 8 6 9 6 3 1v3l-4-2-11-7-13-10-14-12z" fill="#484848"/>
<path transform="translate(1309,876)" d="m0 0 1 2-8 14-10 14-9 10-7 8-7 7-11 9-5 4-2-1 15-13 7-6 2-3h2l2-4 11-12 12-17z" fill="#454545"/>
<path transform="translate(888,989)" d="m0 0h1v9l-2 24 32 3 7 1 20 1v1h-23l-32-3-6-2 1-17z" fill="#454545"/>
<path transform="translate(897,1110)" d="m0 0 2 4 10 42 3 13-13 3-8 2-4-1 22-6-2-9-10-43z" fill="#474747"/>
<path transform="translate(1267,1155)" d="m0 0 1 3-18 10-21 11-16 7-3-1 5-3 26-12 23-12z" fill="#474747"/>
<path transform="translate(916,955)" d="m0 0h34v1l-38 3h-19l3-2z" fill="#484848"/>
<path transform="translate(963,952)" d="m0 0h29l29 2v1h-65v-1z" fill="#464646"/>
<path transform="translate(1058,895)" d="m0 0h1l-1 19-2 22-2 7-2-4-3-16 1-3 3 8 2-9z" fill="#454545"/>
<path transform="translate(1256,1038)" d="m0 0 7 4 12 11 8 7 10 11 8 10-1 2-13-15-18-18-13-10z" fill="#484848"/>
<path transform="translate(870,1130)" d="m0 0h1v12l-2 37-2-1v-16l1-27z" fill="#4B4B4B"/>
<path transform="translate(792,1218)" d="m0 0 4 2-13 13-7 10-8 12-3 1-4-4 6 2 2-5 12-17 8-9h2z" fill="#4B4B4B"/>
<path transform="translate(1050,1268)" d="m0 0 2 1-7 7-8 7-12 11-13 10h-3l9-8 9-7 16-15z" fill="#494949"/>
<path transform="translate(615,1145)" d="m0 0h1v46h-1l-1-5-1-20z" fill="#454545"/>
<path transform="translate(991,1271)" d="m0 0 1 4-14 41-1-4 11-35z" fill="#4B4B4B"/>
<path transform="translate(895,699)" d="m0 0 2 1-7 7-8 7-22 22v-3l10-10 6-7 8-7z" fill="#4B4B4B"/>
<path transform="translate(1017,1171)" d="m0 0h2l-1 9-9 37h-1l1-9z" fill="#454545"/>
<path transform="translate(886,967)" d="m0 0h1l-1 13-3 23-2 2-3-16 1-4 3 8 3-21z" fill="#494949"/>
<path transform="translate(670,895)" d="m0 0h1l8 40 3 12-1 3-2-3-5-25-4-21z" fill="#454545"/>
<path transform="translate(802,806)" d="m0 0v3l-11 16-11 17h-2l2-5 15-22z" fill="#4A4A4A"/>
<path transform="translate(1252,700)" d="m0 0 4 1h3l13 11 4 5-4-2-13-9-7-5z" fill="#454545"/>
<path transform="translate(482,1197)" d="m0 0 3 1 1 3-10 4-15 7h-2l-1 3v-4l19-10z" fill="#454545"/>
<path transform="translate(1281,916)" d="m0 0v3l-12 12-11 9-5 4-2-1 15-13 7-6 2-3h2v-2z" fill="#535353"/>
<path transform="translate(653,725)" d="m0 0 1 2-1 2 2 1-10 9-6 4 2-5z" fill="#454545"/>
<path transform="translate(926,756)" d="m0 0h2l-1 9-6 21-2 1 4-18z" fill="#4B4B4B"/>
<path transform="translate(1297,1244)" d="m0 0 2 1-7 9-3 4h-2l-1 3h-2v-4l5-5z" fill="#484848"/>
<path transform="translate(1317,1112)" d="m0 0h2l1 7-10 8-2-1 7-10zm0 3 1 2z" fill="#454545"/>
<path transform="translate(866,947)" d="m0 0h2l2 17-12 3h-5l1-2 14-3z" fill="#4B4B4B"/>
<path transform="translate(908,1158)" d="m0 0 2 1 2 10-13 3-8 2-4-1 22-6z" fill="#454545"/>
<path transform="translate(628,860)" d="m0 0v3l-6 9h-5l-1-3z" fill="#484848"/>
<path transform="translate(1164,1255)" d="m0 0 2 1-18 11-7 4h-2v-2z" fill="#535353"/>
<path transform="translate(794,987)" d="m0 0 3 1-19 7h-3v2l2 1-5-1 1-3z" fill="#494949"/>
<path transform="translate(684,1289)" d="m0 0 5 2 11 8 8 4v3l-4-2-11-7-9-7z" fill="#454545"/>
<path transform="translate(1231,1175)" d="m0 0m-3 1h3v2l-18 8-3-1 5-3z" fill="#4D4D4D"/>
<path transform="translate(1321,865)" d="m0 0 4 2 13 13-1 2-8-8-3-2v-2l-3 1-2-3z" fill="#4D4D4D"/>
<path transform="translate(1055,984)" d="m0 0 2 2 1 4v7h-5z" fill="#454545"/>
<path transform="translate(923,1208)" d="m0 0 2 3 6 19v2h-3l-4-17z" fill="#494949"/>
<path transform="translate(1049,920)" d="m0 0 2 2 2 6 1 8h1v6l-2 1-4-20z" fill="#494949"/>
<path transform="translate(608,1183)" d="m0 0h1l2 17-3-3-4-7 1-2 2 2z" fill="#4A4A4A"/>
<path transform="translate(1360,971)" d="m0 0 2 2 1 9-2 9h-1z" fill="#4A4A4A"/>
<path transform="translate(882,1042)" d="m0 0 2 4 1 9h-4v-10z" fill="#4A4A4A"/>
<path transform="translate(1107,1207)" d="m0 0v3l-9 10-4 1 6-7z" fill="#4F4F4F"/>
<path transform="translate(560,1060)" d="m0 0 3 1v16l-2-3z" fill="#454545"/>
<path transform="translate(818,1208)" d="m0 0 3 1-10 8-2-2 7-6z" fill="#454545"/>
<path transform="translate(1007,1329)" d="m0 0 3 1v3h-12l1-2z" fill="#4B4B4B"/>
<path transform="translate(695,1026)" d="m0 0 1 3-5 5-7 5-2-1 12-10z" fill="#454545"/>
<path transform="translate(737,1330)" d="m0 0 12 5-3 1h-3-3l-3-4z" fill="#454545"/>
<path transform="translate(1086,1227)" d="m0 0h5l-1 4-4 2-1-5z" fill="#454545"/>
</svg>
